<svg width="203" height="38" viewBox="0 0 203 38" fill="none" xmlns="http://www.w3.org/2000/svg">
<g filter="url(#filter0_dd_3_100)">
<rect x="3.1" y="2.1" width="31.8" height="31.8" rx="7.9" fill="white"/>
<rect x="3.1" y="2.1" width="31.8" height="31.8" rx="7.9" fill="url(#paint0_linear_3_100)"/>
<rect x="3.1" y="2.1" width="31.8" height="31.8" rx="7.9" stroke="#D0D5DD" stroke-width="0.2"/>
<path d="M18.3546 13.1828C22.7105 11.4504 27.4742 12.8185 29.6373 14.9133C30.106 15.3671 30.5041 15.8275 30.845 16.2852C31.0394 15.2107 31.0552 14.1405 30.8681 13.1055C30.1847 9.32649 26.6195 7.18561 23.4233 8.29149C20.2415 9.3924 19.0005 11.5321 19.0005 11.5321C19.0005 11.5321 17.7595 9.3924 14.5777 8.29149C11.3812 7.18561 7.81603 9.32672 7.1328 13.1055C6.62842 15.8944 7.58356 18.9392 9.61033 21.6298C10.0372 21.7732 10.4847 21.8809 10.9586 21.9431C13.7978 22.3163 14.8184 21.557 16.0178 21.0486C16.8142 20.7113 17.4134 21.0942 17.3843 21.3626C17.3392 21.7786 15.7693 22.4895 16.106 22.6388C17.4351 23.2285 19.0718 23.2334 20.3053 22.18C21.838 20.8712 22.4114 21.7659 22.4114 21.7659C22.4114 21.7659 21.6502 23.7076 19.3581 24.6717C17.4457 25.4761 15.4419 25.6743 13.6107 25.4683C15.19 26.5846 17.0035 27.5204 19.0005 28.1883C24.7099 26.2784 28.9276 22.1871 30.4145 17.9096C29.4072 16.9157 28.1716 16.2996 26.6988 16.0763C23.8674 15.6471 22.8322 16.3863 21.6228 16.8708C20.8198 17.1926 20.2285 16.7978 20.263 16.5299C20.3161 16.1148 21.8999 15.4351 21.5661 15.279C20.249 14.6633 18.6125 14.626 17.3585 15.6549C15.8003 16.9332 15.2446 16.0274 15.2446 16.0274C15.2446 16.0274 16.0438 14.1015 18.3546 13.1828ZM17.2709 18.5052H18.3709V17.4052H19.6296V18.5052H20.7296V19.7639H19.6296V20.8639H18.3709V19.7639H17.2709V18.5052Z" fill="url(#paint1_linear_3_100)"/>
<path d="M17.2709 18.5052H18.3709V17.4052H19.6296V18.5052H20.7295V19.7639H19.6378C21.2597 20.5834 24.2383 21.8027 27.8177 22.3451C28.9956 20.9517 29.8813 19.4428 30.4143 17.9096C29.4069 16.9157 28.1713 16.2996 26.6986 16.0763C23.8672 15.647 22.8319 16.3863 21.6226 16.8708C20.8196 17.1926 20.2282 16.7978 20.2627 16.5299C20.3159 16.1148 21.8997 15.4351 21.5659 15.279C20.2488 14.6633 18.6123 14.626 17.3583 15.6548C15.8 16.9332 15.2443 16.0274 15.2443 16.0274C15.2443 16.0274 16.0438 14.1013 18.3543 13.1823C22.7102 11.4499 27.4739 12.818 29.637 14.9128C30.1057 15.3666 30.5038 15.8271 30.8447 16.2847C31.0392 15.2102 31.055 14.14 30.8679 13.105C30.1844 9.326 26.6192 7.18512 23.423 8.291C20.2412 9.39191 19.0002 11.5316 19.0002 11.5316C19.0002 11.5316 17.7592 9.39191 14.5774 8.291C12.7519 7.65927 10.8067 8.0883 9.34619 9.27521C10.0323 10.7442 10.836 12.1168 13.1254 14.8773C14.9868 17.1222 17.2709 18.5052 17.2709 18.5052Z" fill="url(#paint2_linear_3_100)"/>
<path opacity="0.31" d="M27.2769 9.64942C24.2711 8.13932 21.169 10.489 20.185 11.7298C21.882 11.3724 23.3668 11.189 25.2457 11.5838C28.0251 12.1678 29.0653 13.1714 30.3063 14.6541C30.0871 11.9068 28.3518 10.1895 27.2769 9.64942Z" fill="url(#paint3_linear_3_100)"/>
</g>
<path d="M46.728 28V10.12H49.992V17.92H57.6V10.12H60.888V28H57.6V20.8H49.992V28H46.728ZM64.3296 28V10.12H76.2096V13H67.5936V17.584H75.7296V20.464H67.5936V25.12H76.2096V28H64.3296ZM77.139 28L83.307 10.12H87.531L93.699 28H90.147L88.875 24.16H81.963L80.667 28H77.139ZM82.899 21.28H87.939L84.963 12.376H85.875L82.899 21.28ZM95.6889 28V10.12H98.9529V25.12H106.609V28H95.6889ZM110.459 28V13H105.827V10.12H118.307V13H113.747V28H110.459ZM120.298 28V10.12H123.562V17.92H131.17V10.12H134.458V28H131.17V20.8H123.562V28H120.298ZM144.284 28.288C143.148 28.288 142.092 28.08 141.116 27.664C140.156 27.248 139.324 26.672 138.62 25.936C137.932 25.184 137.428 24.312 137.108 23.32L139.82 22.144C140.252 23.168 140.876 23.976 141.692 24.568C142.508 25.144 143.428 25.432 144.452 25.432C145.028 25.432 145.524 25.344 145.94 25.168C146.372 24.976 146.7 24.72 146.924 24.4C147.164 24.08 147.284 23.696 147.284 23.248C147.284 22.72 147.124 22.288 146.804 21.952C146.5 21.6 146.036 21.328 145.412 21.136L141.98 20.032C140.588 19.6 139.54 18.952 138.836 18.088C138.132 17.224 137.78 16.208 137.78 15.04C137.78 14.016 138.028 13.112 138.524 12.328C139.036 11.544 139.74 10.936 140.636 10.504C141.548 10.056 142.588 9.832 143.756 9.832C144.828 9.832 145.812 10.024 146.708 10.408C147.604 10.776 148.372 11.296 149.012 11.968C149.668 12.624 150.156 13.4 150.476 14.296L147.788 15.496C147.436 14.6 146.908 13.912 146.204 13.432C145.5 12.936 144.684 12.688 143.756 12.688C143.212 12.688 142.732 12.784 142.316 12.976C141.9 13.152 141.572 13.408 141.332 13.744C141.108 14.064 140.996 14.448 140.996 14.896C140.996 15.392 141.156 15.832 141.476 16.216C141.796 16.584 142.284 16.872 142.94 17.08L146.228 18.112C147.652 18.576 148.716 19.216 149.42 20.032C150.14 20.848 150.5 21.856 150.5 23.056C150.5 24.08 150.236 24.984 149.708 25.768C149.18 26.552 148.452 27.168 147.524 27.616C146.596 28.064 145.516 28.288 144.284 28.288ZM157.46 28V20.08L151.436 10.12H155.156L159.764 17.896H158.444L163.028 10.12H166.748L160.748 20.056V28H157.46ZM168.744 28V10.12H171.288L181.128 23.368L179.808 23.632V10.12H183.072V28H180.504L170.808 14.656L172.008 14.392V28H168.744ZM194.933 28.288C193.653 28.288 192.469 28.056 191.381 27.592C190.309 27.128 189.365 26.48 188.549 25.648C187.749 24.816 187.125 23.84 186.677 22.72C186.229 21.6 186.005 20.376 186.005 19.048C186.005 17.72 186.221 16.496 186.653 15.376C187.101 14.24 187.725 13.264 188.525 12.448C189.341 11.616 190.293 10.976 191.381 10.528C192.469 10.064 193.653 9.832 194.933 9.832C196.213 9.832 197.357 10.048 198.365 10.48C199.389 10.912 200.253 11.488 200.957 12.208C201.661 12.912 202.165 13.688 202.469 14.536L199.541 15.904C199.205 15.008 198.637 14.272 197.837 13.696C197.037 13.104 196.069 12.808 194.933 12.808C193.813 12.808 192.821 13.072 191.957 13.6C191.109 14.128 190.445 14.856 189.965 15.784C189.501 16.712 189.269 17.8 189.269 19.048C189.269 20.296 189.501 21.392 189.965 22.336C190.445 23.264 191.109 23.992 191.957 24.52C192.821 25.048 193.813 25.312 194.933 25.312C196.069 25.312 197.037 25.024 197.837 24.448C198.637 23.856 199.205 23.112 199.541 22.216L202.469 23.584C202.165 24.432 201.661 25.216 200.957 25.936C200.253 26.64 199.389 27.208 198.365 27.64C197.357 28.072 196.213 28.288 194.933 28.288Z" fill="white"/>
<defs>
<filter id="filter0_dd_3_100" x="0" y="0" width="38" height="38" filterUnits="userSpaceOnUse" color-interpolation-filters="sRGB">
<feFlood flood-opacity="0" result="BackgroundImageFix"/>
<feColorMatrix in="SourceAlpha" type="matrix" values="0 0 0 0 0 0 0 0 0 0 0 0 0 0 0 0 0 0 127 0" result="hardAlpha"/>
<feOffset dy="1"/>
<feGaussianBlur stdDeviation="1"/>
<feColorMatrix type="matrix" values="0 0 0 0 0.0627451 0 0 0 0 0.0941176 0 0 0 0 0.156863 0 0 0 0.06 0"/>
<feBlend mode="normal" in2="BackgroundImageFix" result="effect1_dropShadow_3_100"/>
<feColorMatrix in="SourceAlpha" type="matrix" values="0 0 0 0 0 0 0 0 0 0 0 0 0 0 0 0 0 0 127 0" result="hardAlpha"/>
<feOffset dy="1"/>
<feGaussianBlur stdDeviation="1.5"/>
<feColorMatrix type="matrix" values="0 0 0 0 0.0627451 0 0 0 0 0.0941176 0 0 0 0 0.156863 0 0 0 0.1 0"/>
<feBlend mode="normal" in2="effect1_dropShadow_3_100" result="effect2_dropShadow_3_100"/>
<feBlend mode="normal" in="SourceGraphic" in2="effect2_dropShadow_3_100" result="shape"/>
</filter>
<linearGradient id="paint0_linear_3_100" x1="19" y1="2" x2="19" y2="34" gradientUnits="userSpaceOnUse">
<stop stop-color="white"/>
<stop offset="1" stop-color="#D0D5DD"/>
</linearGradient>
<linearGradient id="paint1_linear_3_100" x1="10.1989" y1="24.2137" x2="27.8347" y2="6.57791" gradientUnits="userSpaceOnUse">
<stop stop-color="#0076C1"/>
<stop offset="0.0737" stop-color="#0B82C6"/>
<stop offset="0.2766" stop-color="#269ED3"/>
<stop offset="0.4546" stop-color="#36AFDA"/>
<stop offset="0.587" stop-color="#3CB5DD"/>
</linearGradient>
<linearGradient id="paint2_linear_3_100" x1="10.1388" y1="24.2537" x2="27.8274" y2="6.56509" gradientUnits="userSpaceOnUse">
<stop stop-color="#00A482"/>
<stop offset="1" stop-color="#79DD83"/>
</linearGradient>
<linearGradient id="paint3_linear_3_100" x1="24.8608" y1="13.5072" x2="28.5287" y2="10.1131" gradientUnits="userSpaceOnUse">
<stop stop-color="#00A482"/>
<stop offset="1" stop-color="#79DD83"/>
</linearGradient>
</defs>
</svg>
